<?xml version="1.0" encoding="utf-8"?>
<!-- Generator: Adobe Illustrator 21.0.0, SVG Export Plug-In . SVG Version: 6.00 Build 0)  -->
<svg version="1.1" id="Layer_1" xmlns="http://www.w3.org/2000/svg" xmlns:xlink="http://www.w3.org/1999/xlink" x="0px" y="0px"
	 viewBox="0 0 169.7 166.7" style="enable-background:new 0 0 169.7 166.7;" xml:space="preserve">
<style type="text/css">
	.st0{fill:#6FB8AB;}
</style>
<path class="st0" d="M168.9,45.4c0.1-0.1,0.1-0.2,0.2-0.4c0.1-0.1,0.2-0.3,0.2-0.4c0.1-0.2,0.1-0.3,0.2-0.5c0-0.1,0.1-0.2,0.1-0.4
	c0.1-0.6,0.1-1.2,0-1.8c0-0.1-0.1-0.2-0.1-0.3c0-0.2-0.1-0.4-0.2-0.5c-0.1-0.1-0.1-0.2-0.2-0.3c-0.1-0.1-0.1-0.3-0.2-0.4
	c-0.1-0.2-0.3-0.3-0.4-0.5c-0.1-0.1-0.1-0.1-0.1-0.2L129.9,1.3c-1.8-1.8-4.6-1.8-6.4,0c-1.8,1.8-1.8,4.6,0,6.4l30.7,30.7H39.6
	c0,0,0,0,0,0H4.5c-2.5,0-4.5,2-4.5,4.5c0,0,0,0,0,0s0,0,0,0c0,2.5,2,4.5,4.5,4.5h35.1c14.2,0,25.8,11.6,25.8,25.8v78.1l-30.7-30.7
	c-1.8-1.8-4.6-1.8-6.4,0c-1.8,1.8-1.8,4.6,0,6.4l38.4,38.4c0,0,0,0,0,0c0.2,0.2,0.4,0.4,0.7,0.5c0.1,0.1,0.2,0.1,0.3,0.2
	c0.1,0.1,0.3,0.2,0.4,0.2c0.1,0.1,0.3,0.1,0.5,0.1c0.1,0,0.2,0.1,0.4,0.1c0.3,0.1,0.6,0.1,0.9,0.1s0.6,0,0.9-0.1
	c0.1,0,0.3-0.1,0.4-0.1c0.2,0,0.3-0.1,0.5-0.1c0.1-0.1,0.3-0.1,0.4-0.2c0.1-0.1,0.2-0.1,0.3-0.2c0.2-0.2,0.5-0.3,0.7-0.5
	c0,0,0,0,0,0l38.4-38.4c1.8-1.8,1.8-4.6,0-6.4c-1.8-1.8-4.6-1.8-6.4,0l-30.7,30.7V73.3c0-10.2-4.4-19.5-11.5-25.8h91.4l-30.7,30.7
	c-1.8,1.8-1.8,4.6,0,6.4c0.9,0.9,2,1.3,3.2,1.3s2.3-0.4,3.2-1.3l38.4-38.4C168.6,45.9,168.7,45.7,168.9,45.4z"/>
</svg>
