<?xml version="1.0" encoding="utf-8"?>
<!-- Generator: Adobe Illustrator 21.0.0, SVG Export Plug-In . SVG Version: 6.00 Build 0)  -->
<svg version="1.1" id="Layer_1" xmlns="http://www.w3.org/2000/svg" xmlns:xlink="http://www.w3.org/1999/xlink" x="0px" y="0px"
	 viewBox="0 0 70.9 70.9" style="enable-background:new 0 0 70.9 70.9;" xml:space="preserve">
<style type="text/css">
	.st0{fill:#598619;}
</style>
<path class="st0" d="M63.5,28c-1,0-1.9,0.2-2.9,0.6c-0.6-2.2-1.5-4.2-2.5-6.1c0.9-0.4,1.7-0.9,2.4-1.6c1.4-1.4,2.2-3.3,2.2-5.2
	c0-2-0.8-3.8-2.2-5.2C59,9,57.2,8.2,55.2,8.2c0,0,0,0-0.1,0c-2,0-3.8,0.8-5.1,2.2c-0.6,0.6-1.2,1.5-1.6,2.4
	c-1.9-1.1-3.9-1.9-6.1-2.5c0.4-0.9,0.5-1.8,0.5-2.8c0-4.1-3.3-7.4-7.4-7.4c-4,0-7.4,3.4-7.4,7.4c0,0.9,0.2,1.8,0.5,2.7
	c-2.2,0.6-4.2,1.5-6.1,2.5c-0.4-0.9-0.9-1.6-1.6-2.3c-1.4-1.4-3.3-2.2-5.3-2.2c0,0,0,0-0.1,0c-2,0-3.8,0.8-5.1,2.2
	c-1.4,1.4-2.2,3.3-2.2,5.2c0,2,0.8,3.8,2.2,5.2c0.6,0.6,1.4,1.2,2.2,1.5c-1.1,1.9-1.9,4-2.5,6.1C9.2,28.2,8.3,28,7.4,28
	C3.3,28,0,31.3,0,35.4c0,4.1,3.3,7.4,7.4,7.4c0.9,0,1.8-0.2,2.7-0.5c0.6,2.1,1.4,4.1,2.5,6.1c-0.9,0.4-1.6,0.9-2.2,1.6
	c-1.4,1.4-2.2,3.3-2.2,5.2S9,59,10.4,60.4c1.4,1.4,3.3,2.2,5.2,2.2s3.9-0.8,5.2-2.2c0.7-0.7,1.2-1.4,1.6-2.3c0.3,0.2,0.7,0.4,1,0.6
	l-3.1,8.3c-0.3,0.8-0.2,1.7,0.2,2.5l0.1,0.2c0.6,0.8,1.5,1.2,2.4,1.2h24.7c1,0,1.9-0.5,2.4-1.2c0.6-0.8,0.7-1.8,0.3-2.7l-3.1-8.2
	c0.4-0.2,0.8-0.4,1.1-0.6c0.4,0.8,0.9,1.6,1.5,2.4c1.4,1.4,3.3,2.2,5.2,2.2c1.9,0,3.9-0.8,5.2-2.2c1.4-1.4,2.2-3.3,2.2-5.2
	c0-2-0.8-3.8-2.2-5.2c-0.6-0.6-1.5-1.2-2.4-1.6c1.1-2,1.9-4,2.5-6.1c0.8,0.3,1.8,0.5,2.8,0.5c4.1,0,7.4-3.3,7.4-7.4
	C70.9,31.3,67.6,28,63.5,28z M65.2,35.4c0,0.9-0.8,1.7-1.7,1.7c-0.9,0-1.7-0.8-1.7-1.7s0.8-1.7,1.7-1.7
	C64.4,33.7,65.2,34.5,65.2,35.4z M56.5,16.9c-0.7,0.7-1.8,0.7-2.5,0c-0.3-0.3-0.5-0.8-0.5-1.2c0-0.5,0.2-0.9,0.5-1.2v0
	c0.3-0.3,0.8-0.5,1.2-0.5c0.4,0,0.9,0.2,1.2,0.5c0.3,0.3,0.5,0.7,0.5,1.2C57,16.1,56.9,16.5,56.5,16.9z M14.4,53.9
	c0.3-0.3,0.7-0.5,1.2-0.5c0.4,0,0.9,0.2,1.2,0.5c0.3,0.3,0.5,0.8,0.5,1.2c0,0.5-0.2,0.9-0.5,1.2c-0.7,0.7-1.8,0.7-2.5,0
	c-0.3-0.3-0.5-0.7-0.5-1.2C13.9,54.8,14.1,54.3,14.4,53.9z M35.4,31.6c2.1,0,3.8,1.7,3.8,3.8c0,2-1.8,3.8-3.8,3.8
	c-2.1,0-3.8-1.7-3.8-3.8C31.6,33.3,33.3,31.6,35.4,31.6z M34.8,45c0.4,0,0.7,0,1,0l4,10.4c-1.5,0.3-3,0.5-4.5,0.5
	c-1.5,0-2.9-0.2-4.5-0.5L34.8,45z M45,35.4c0-5.2-4.3-9.5-9.5-9.5c-5.2,0-9.5,4.4-9.5,9.5c0,2.9,1.4,5.7,3.6,7.5l-3.9,10.5
	c-6.6-3.6-10.7-10.4-10.7-18c0-11.3,9.2-20.5,20.5-20.5c11.3,0,20.4,9.2,20.4,20.5c0,7.5-4,14.3-10.6,18l-3.9-10.5
	C43.6,41.1,45,38.3,45,35.4z M28.1,62.7c0,0.2,0,0.5,0,0.7c0,0.6,0.1,1.2,0.2,1.7h-1.1L28.1,62.7z M42.9,63.3l0.7,1.9h-0.9
	c0.1-0.6,0.2-1.1,0.2-1.7C42.9,63.4,42.9,63.3,42.9,63.3z M33.7,7.4c0-0.9,0.8-1.7,1.7-1.7s1.7,0.8,1.7,1.7c0,0.9-0.8,1.7-1.7,1.7
	S33.7,8.3,33.7,7.4z M16.9,16.8c-0.3,0.3-0.7,0.5-1.2,0.5l-0.1,0c-0.4,0.1-0.8-0.1-1.1-0.4l-0.1-0.1C14.1,16.5,14,16,14,15.5
	c0-0.4,0.2-0.9,0.5-1.2c0.3-0.3,0.8-0.5,1.2-0.5c0.4,0,0.9,0.2,1.2,0.5C17.6,15,17.6,16.1,16.9,16.8z M37.2,63.4
	c0,0.9-0.8,1.7-1.7,1.7s-1.7-0.8-1.7-1.7c0-0.9,0.8-1.7,1.7-1.7S37.2,62.5,37.2,63.4z M56.9,55.3c0,0.4-0.2,0.9-0.5,1.2
	c-0.7,0.7-1.8,0.7-2.5,0c-0.7-0.7-0.7-1.8,0-2.5c0.3-0.3,0.8-0.5,1.2-0.5l0.1,0c0.4-0.1,0.8,0.1,1,0.4l0.1,0.1
	C56.8,54.3,56.9,54.8,56.9,55.3z M9.1,35.4c0,0.9-0.8,1.7-1.7,1.7c-0.9,0-1.7-0.8-1.7-1.7s0.8-1.7,1.7-1.7S9.1,34.5,9.1,35.4z"/>
</svg>
