<?xml version="1.0" encoding="utf-8"?>
<!-- Generator: Adobe Illustrator 21.0.0, SVG Export Plug-In . SVG Version: 6.00 Build 0)  -->
<svg version="1.1" id="Layer_1" xmlns="http://www.w3.org/2000/svg" xmlns:xlink="http://www.w3.org/1999/xlink" x="0px" y="0px"
	 viewBox="0 0 70.9 70.9" style="enable-background:new 0 0 70.9 70.9;" xml:space="preserve">
<style type="text/css">
	.st0{fill:#8B66D0;}
</style>
<path class="st0" d="M63.3,19.2h-11v-6.4C52.3,8.6,50,0.4,41,0h-2.8c-0.3,0-0.5,0-0.8,0.1c-0.9,0.1-1.8,0.3-2.5,0.6
	c-1.1-0.4-2.4-0.7-3.7-0.7h-2.8c-0.3,0-0.5,0-0.8,0.1c-7.9,1-10.1,8.8-10.1,12.7v6.4H5.6L0,70.9h70.9L63.3,19.2z M20.1,31.9
	c1.4,0,2.6-1.2,2.6-2.6v-4.8h14.5v4.8c0,1.4,1.2,2.6,2.6,2.6c1.4,0,2.6-1.2,2.6-2.6v-4.8h7.7l-4.6,41.2H5.7l4.6-41.2h7.2v4.8
	C17.5,30.7,18.7,31.9,20.1,31.9z M29.5,5.2c-1.6,2.5-2.1,5.4-2.1,7.6v6.4h-4.7v-6.4c0-0.8,0.2-7.4,6.1-7.6L29.5,5.2z M40.9,5.2
	c6,0.3,6.2,6.9,6.2,7.6v6.4h-4.7v-6.4c0-2.2-0.6-5.2-2.2-7.6L40.9,5.2z M58.7,24.5l6.2,41.2H50.9l4.6-41.2H58.7z M37.3,12.8v6.4
	h-4.7v-6.4c0,0,0-3.9,2.3-6.1C37.2,9,37.3,12.8,37.3,12.8z"/>
</svg>
