<?xml version="1.0" encoding="utf-8"?>
<!-- Generator: Adobe Illustrator 21.0.0, SVG Export Plug-In . SVG Version: 6.00 Build 0)  -->
<svg version="1.1" id="Layer_1" xmlns="http://www.w3.org/2000/svg" xmlns:xlink="http://www.w3.org/1999/xlink" x="0px" y="0px"
	 viewBox="0 0 70.9 70.9" style="enable-background:new 0 0 70.9 70.9;" xml:space="preserve">
<style type="text/css">
	.st0{fill:#70B8AB;}
</style>
<g>
	<g>
		<path class="st0" d="M70.9,65.9H0V51.4h9.4v-23H0V14.5L35.4,4.3l35.4,10.1v13.9h-9.4v23h9.4L70.9,65.9L70.9,65.9z M5.2,60.8h60.5
			v-4.2h-9.4V23.2h9.4v-4.9L35.4,9.7L5.2,18.4v4.9h9.4v33.3H5.2V60.8z M52.1,56.5H37.5V23.2H52L52.1,56.5L52.1,56.5z M42.7,51.4h4.2
			v-23h-4.2V51.4z M33.3,56.5H18.8V23.2h14.5V56.5z M23.9,51.4h4.2v-23h-4.2C23.9,28.4,23.9,51.4,23.9,51.4z"/>
	</g>
</g>
</svg>
