<?xml version="1.0" encoding="utf-8"?>
<!-- Generator: Adobe Illustrator 21.0.0, SVG Export Plug-In . SVG Version: 6.00 Build 0)  -->
<svg version="1.1" id="Layer_1" xmlns="http://www.w3.org/2000/svg" xmlns:xlink="http://www.w3.org/1999/xlink" x="0px" y="0px"
	 viewBox="0 0 169.2 171" style="enable-background:new 0 0 169.2 171;" xml:space="preserve">
<style type="text/css">
	.st0{fill:#FFFFFF;}
</style>
<g>
	<path class="st0" d="M20.1,88c-0.2-1.8-0.3-3.8-0.3-5.9c0-34,27.8-61.7,61.8-61.7h0c0,0,0.1,0,0.1,0c10.7,0,21.4,2.9,30.6,8.2
		l-1.7,1.7c-1.7,1.7-2.6,3.9-2.6,6.3c0,2.4,0.9,4.6,2.6,6.3c1.5,1.4,3.4,2.4,5.4,2.6l20.6,2l0.9,0c0,0,0,0,0,0c4.9,0,8.9-4,8.9-8.9
		c0-0.3,0-0.5,0-0.9l-2-20.6c-0.5-4.9-4.8-8.5-9.7-8c-2,0.2-4,1.1-5.4,2.6l-2.1,2.1c-16.4-11-36-15.7-55.8-13.2
		C49.5,3.4,30.2,14.5,16.8,31.8C5.7,46.1-0.4,64-0.4,82.1c0,2.6,0.1,5.3,0.4,7.9c0.5,5.2,4.8,9.1,10.1,9.1h0.7l0.3,0
		c5.5-0.5,9.5-5.4,9.1-10.9L20.1,88z"/>
	<path class="st0" d="M169.2,81.6l-0.1-0.6c-0.8-5.5-5.9-9.4-11.4-8.7c-5.2,0.7-9.1,5.4-8.7,10.6l0,0.3c0.2,1.8,0.3,3.8,0.3,5.9
		c0,34-27.7,61.8-61.7,61.8c0,0,0,0,0,0c-11.3,0-22.4-3.1-32-8.9l1.5-1.5c3.5-3.5,3.5-9.1,0-12.6c-1.5-1.4-3.4-2.4-5.4-2.6l-20.6-2
		c-2.4-0.2-4.7,0.5-6.5,2c-1.8,1.5-3,3.7-3.2,6c-0.1,0.6-0.1,1.2,0,1.7l2,20.6c0.2,2.4,1.4,4.5,3.2,6c1.8,1.5,4.2,2.2,6.5,2
		c2-0.2,4-1.1,5.4-2.6l2.5-2.5c14.1,9.7,30.3,14.5,46.5,14.5c24,0,47.9-10.5,64-30.7c11.6-14.5,18-32.7,18-51.3
		C169.6,86.6,169.4,84.1,169.2,81.6z"/>
</g>
</svg>
