<?xml version="1.0" encoding="utf-8"?>
<!-- Generator: Adobe Illustrator 21.0.0, SVG Export Plug-In . SVG Version: 6.00 Build 0)  -->
<svg version="1.1" id="Layer_1" xmlns="http://www.w3.org/2000/svg" xmlns:xlink="http://www.w3.org/1999/xlink" x="0px" y="0px"
	 viewBox="0 0 70 60.5" style="enable-background:new 0 0 70 60.5;" xml:space="preserve">
<style type="text/css">
	.st0{fill:#D08A00;}
</style>
<path class="st0" d="M32,5.5v6.8c0,6.9-2.7,12-7.9,15.1l0,0c-0.4,0.2-1,0.6-1.6,1.1c-0.3-0.3-0.6-0.5-0.8-0.6
	c-0.1-0.1-0.2-0.1-0.3-0.2c-5.8-4.3-8.3-8.9-8.3-15.4V5.5H32 M35,0H10.1C7.5,0,7.5,0,7.5,2.5v9.8c0,9.9,4.8,15.7,10.6,19.9
	c0.9,0.7,1.9,1.2,1.9,2.3v18c0,1.9-0.7,2.5-2.6,2.5h-6c-2.3,0-2.3,0-2.3,2.4c0,2.5,0,2.5,2.3,2.5h22.2c2.3,0,2.3,0,2.3-2.5
	c0-2.4,0-2.4-2.3-2.4h-6c-1.9,0-2.6-0.6-2.6-2.5v-18c0-1.2,0.9-1.8,1.9-2.3c6.1-3.7,10.6-10,10.6-19.9V2.5C37.5,0,37.5,0,35,0L35,0z
	"/>
<path class="st0" d="M52.5,24.7c0.3,0.2,0.6,0.4,0.9,0.5c-0.3,0.3-0.6,0.7-0.9,1c-0.3-0.4-0.6-0.7-0.9-1
	C51.9,25,52.2,24.9,52.5,24.7 M60.6,0c-2,0-2,0-2,2.8V18c0,1.6-1,2.4-2,2.4s-2-0.8-2-2.4V2.8c0-2.8,0-2.8-2-2.8
	c-2.1,0-2.1,0-2.1,2.8V18c0,1.6-1,2.4-2,2.4c-1,0-2-0.8-2-2.4V2.8c0-2.8,0-2.8-1.9-2.8c-2.1,0-2.1,0-2.1,2.8v16.4
	c0,7.9,7.6,9.4,7.6,14.5c0,8.6-2.5,13.2-2.5,20.2c0,4,2.5,6,5,6c2.4,0,4.9-2,4.9-6c0.1-7.1-2.4-11.6-2.4-20.2
	c0-5.1,7.4-6.7,7.4-14.5V2.8C62.5,0,62.5,0,60.6,0L60.6,0z"/>
</svg>
