<?xml version="1.0" encoding="utf-8"?>
<!-- Generator: Adobe Illustrator 21.0.0, SVG Export Plug-In . SVG Version: 6.00 Build 0)  -->
<svg version="1.1" id="Layer_1" xmlns="http://www.w3.org/2000/svg" xmlns:xlink="http://www.w3.org/1999/xlink" x="0px" y="0px"
	 viewBox="0 0 355 113.4" style="enable-background:new 0 0 355 113.4;" xml:space="preserve">
<style type="text/css">
	.st0{fill:#FFFFFF;}
</style>
<g>
	<g>
		<path class="st0" d="M0,57.8h3.7c3.6,0,6.6,1.5,6.6,5.6c0,3.6-3,5.6-6.3,5.6H0V57.8z M2.5,66.8h1.3c2.3,0,4-0.9,4-3.4
			c0-2.2-1.8-3.2-3.8-3.2H2.5V66.8z"/>
		<rect x="13.9" y="57.8" class="st0" width="2.5" height="11.2"/>
		<path class="st0" d="M26.7,60.6c-0.4-0.5-1.2-0.7-1.8-0.7c-0.7,0-1.7,0.3-1.7,1.2c0,2,5.2,0.7,5.2,4.7c0,2.5-2,3.7-4.3,3.7
			c-1.4,0-2.7-0.4-3.8-1.4l1.8-1.9c0.5,0.7,1.3,1.1,2.2,1.1c0.8,0,1.7-0.4,1.7-1.2c0-2.1-5.3-1-5.3-4.7c0-2.4,2.1-3.6,4.3-3.6
			c1.3,0,2.5,0.3,3.4,1.2L26.7,60.6z"/>
		<path class="st0" d="M39.5,60.7c-0.5-0.6-1.2-0.9-2.1-0.9c-1.9,0-3.2,1.5-3.2,3.6s1.4,3.6,3.2,3.6c1,0,1.8-0.4,2.3-1.2l2.1,1.5
			c-0.9,1.3-2.5,1.9-4.1,1.9c-3.5,0-6.1-2.3-6.1-5.9c0-3.6,2.6-5.9,6.1-5.9c1.3,0,2.8,0.4,3.8,1.6L39.5,60.7z"/>
		<path class="st0" d="M50.3,57.5c3.5,0,6.1,2.3,6.1,5.9s-2.5,5.9-6.1,5.9c-3.5,0-6.1-2.3-6.1-5.9C44.3,59.8,46.8,57.5,50.3,57.5
			 M50.3,67.1c2.1,0,3.5-1.5,3.5-3.6s-1.4-3.6-3.5-3.6s-3.5,1.5-3.5,3.6C46.8,65.5,48.2,67.1,50.3,67.1"/>
		<polygon class="st0" points="57.9,57.8 60.7,57.8 63.5,65.2 63.5,65.2 66.3,57.8 69,57.8 64.4,69 62.4,69 		"/>
		<polygon class="st0" points="71.8,57.8 79.4,57.8 79.4,60.1 74.3,60.1 74.3,62.2 79.2,62.2 79.2,64.5 74.3,64.5 74.3,66.8 
			79.7,66.8 79.7,69 71.8,69 		"/>
		<path class="st0" d="M83.6,57.8h4.3c2.3,0,4.2,0.8,4.2,3.4c0,1.6-0.8,2.8-2.4,3.1l2.9,4.7h-3l-2.3-4.5h-1.2V69h-2.5V57.8z
			 M86.1,62.5h1.5c0.9,0,2.1,0,2.1-1.3c0-1.1-1-1.3-1.9-1.3h-1.6L86.1,62.5L86.1,62.5z"/>
		<path class="st0" d="M179.3,60c-0.9-0.1-2,0.6-2,0.6c-2.5,1.4-4.7,1.6-4.7,1.6c-3.3,0.6-6.1,0.6-6.1,0.6c0.2-4.2,0.8-6,0.8-6
			c0.6-1.4,1.6-2,1.6-2c1.3-0.9,1.2-2,1.2-2c-0.3-1.4-1.7-1.3-1.7-1.3c-1.3,0-2.2,1-2.2,1c-2.1,2-3.7,2.4-3.7,2.4
			c-10.4,3.4-20,2.2-20,2.2c1.2-1.6,0.8-3.1,0.8-3.1c-0.4-1.9-2.4-2-2.4-2c-2.9-0.4-5,2-5,2c-3,3.1-3.6,7.2-3.7,8.5
			c-0.2-0.1-0.3-0.2-0.3-0.2c-2.7-1.6-6.5-1-6.5-1c-4.6,0.4-11.2,2.7-11.2,2.7c-4.2,1.4-6.8,1.4-6.8,1.4c-2,0-2.8-0.7-2.8-0.7
			c-1.1-0.9-0.9-2.6-0.9-2.6c0.3-4.2,2.8-9.6,2.8-9.6c3.5-9.1,7.8-16.2,7.8-16.2c4.2-7.9,4.4-9.8,4.4-9.8c0.6-3.6-0.6-5.8-0.6-5.8
			c-0.6-1.3-1.9-1.1-1.9-1.1c-1.2,0-2.1,0.8-2.1,0.8c-1.1,0.8-1,2-1,2c0,0.8,0.6,1.8,0.6,1.8c0.3,0.6,0.4,1.3,0.4,1.3
			c0,0.8-0.6,2.2-0.6,2.2c-5.4,11.2-9.5,19.9-9.5,19.9c-5.3,11.1-3.9,16.1-3.9,16.1c0.3,2.6,2.1,4.1,2.1,4.1c1.4,1.2,4,1.3,4,1.3
			c2.1,0.2,5.3-0.7,5.3-0.7c13.3-4.3,17.5-4.1,17.5-4.1c1.4-0.1,2.6,0.1,3.3,0.2c0.1,2.1,0.8,3.6,0.8,3.6c0.7,1.7,1.9,2.3,1.9,2.3
			c1.6,0.9,3.3,0.2,3.3,0.2c5.4-2.2,6.1-10.2,6.1-10.2c11.4,0.3,19.7-2.7,19.7-2.7c-0.6,3-0.7,5.8-0.7,5.8c-5.1,1.6-6.5,3.5-6.5,3.5
			c-1.1,1.5,0.2,2.7,0.2,2.7c1.3,1.2,3.6,1.3,3.6,1.3c3,0.1,4.5-2.1,4.5-2.1c1-1.6,1.1-2.8,1.1-2.8c3.6-0.3,6.2-0.7,6.2-0.7
			c3.9-0.4,6.2-2,6.2-2c1.7-1.2,1.7-2.1,1.7-2.1C180.4,60.1,179.3,60,179.3,60 M141.1,58.3c0,0,0.6,3.1-1.4,6.8c0,0-1.4,2.7-2.7,2.5
			c0,0-1.5-0.1-1.5-3.9c0,0,0-3.8,2.2-7.1c0,0,1-1.7,2.5-1.6c0,0,1.5,0,1.6,1.9C141.8,57,141,57.1,141.1,58.3"/>
		<path class="st0" d="M349.5,53c-0.9-0.8-2-0.3-2-0.3c-1,0.3-2.5,1.5-2.5,1.5c-7,5.8-14.5,8.4-14.5,8.4c-8.3,3.2-10.2,0.3-10.2,0.3
			c4.7-2.6,5.5-5.7,5.5-5.7c0.7-2.7-1.5-3.6-1.5-3.6c-2.1-0.9-4.4,0.4-4.4,0.4c-2.9,1.6-3.8,4.1-3.8,4.1c-1,2.3-0.1,4.5-0.1,4.5
			c-5.2,3.9-8.6,3.9-8.6,3.9c-5.3,0.3-7-5.7-7-5.7c9.8-7.9,12.3-19.3,12.3-19.3c2.3-10.7-2.8-11-2.8-11c-3.3-0.4-6.2,3.5-6.2,3.5
			c-10,12.5-6.9,26.5-6.9,26.5c-4,3.5-10.3,4.8-10.3,4.8c-5,1.2-6.2-0.7-6.2-0.7c4.6-2.5,5.5-4.6,5.5-4.6c1.1-2.1,0.3-3.5,0.3-3.5
			c-0.8-1.6-2.9-1.4-2.9-1.4c-2.2,0-4,1.4-4,1.4c-2.5,1.6-3,4.1-3,4.1c-0.3,1.3-0.2,2.6,0.1,3.5c-6.9,3.4-10.1,5.7-10.1,5.7
			c-0.3-7-1-9.1-1-9.1c-0.3-0.9-1.2-0.7-1.2-0.7c-0.7,0.1-0.9,0.5-1.2,1.2c-0.7,1.2-2.5,2.6-2.5,2.6c-2.1,1.5-3.9,1.8-3.9,1.8
			c-2.1,0.3-2.4-0.7-2.4-0.7c-0.3-1.3,1-2.5,1-2.5c2.7-2.6,7.2-3.8,7.2-3.8c2-0.5,3-0.3,3-0.3c0.6,0.1,0.6,0.5,0.6,0.5l0.1,0.3
			c0.5,0.2,1-0.6,1-0.6c0.6-1.3-0.2-2.2-0.2-2.2c-1.1-1.1-3.3-0.8-3.3-0.8c-5.2,0.6-8.5,3.3-8.5,3.3c-2,1.6-3,3.1-3.4,3.9
			c-5.1,2.8-7.8,2.4-7.8,2.4c-1.9-0.1-2.3-0.9-2.3-0.9c-0.7-1.1-0.6-4-0.6-4c0.1-2.5-0.2-3.4-0.2-3.4c-0.3-1.1-1.4-1.1-1.4-1.1
			c-1.5,0-3.4,1-3.4,1c-4.2,2-6.6,4.7-6.6,4.7c0.9-3.4,1.2-4.9,1.2-4.9c0.1-1-0.8-1.4-0.8-1.4c-1.3-0.5-2.1,0.3-2.1,0.3
			c-1.8,1.6-3.8,3.2-3.8,3.2c-5.5,4.9-10.7,5.8-10.7,5.8c-3.9,0.7-5.3-2.5-5.3-2.5c-1.7-3.1-1.3-7-1.3-7c0.3-3.6,3-8.2,3-8.2
			c1-1.9-0.2-2.8-0.2-2.8c-0.6-0.6-1.6-0.3-1.6-0.3c5.3-4.7,5.7-12.1,5.7-12.1c1.1-10.8-4.4-11.4-4.4-11.4c-4.8-0.8-9.5,3.7-9.5,3.7
			C186,35.8,183,56.4,183,56.4c-1.5,8.8,1.8,12.3,1.8,12.3c2.7,3.3,7.8,0.6,7.8,0.6c6.1-2.8,10.1-11.4,10.1-11.4
			c1.1,8.3,6.9,9,6.9,9c7.3,1.5,16.6-7.4,16.6-7.4c-1,3.4-0.7,5.4-0.7,5.4c0.2,1.4,1,1.4,1,1.4c1,0.2,2.6-1.6,2.6-1.6
			c3.3-3.4,6.5-5.2,6.5-5.2c0.8-0.5,1-0.4,1-0.4c0.5,0.2,0.5,2.1,0.5,2.1c0.3,3.8,1.7,5.1,1.7,5.1c0.8,1,2.7,1.2,2.7,1.2
			c3.3,0.2,7.1-1.1,9.4-2.1c0.3,0.8,0.7,1.3,0.7,1.3c1.4,1.5,4.5,0.8,4.5,0.8c3.3-0.6,5.8-2.6,5.8-2.6c0.6,4,0.7,6.3,0.7,6.3
			c-5.4,3.4-7.8,8.9-7.8,8.9c-1.6,3.2-1.5,6.5-1.5,6.5c0,2,1,3.6,1,3.6c1.8,2.7,3.8,3.3,3.8,3.3c1.3,0.5,2.5-0.2,2.5-0.2
			c1.6-0.9,2.5-3,2.5-3c3.7-7.9,2.9-18,2.9-18c4.7-3.1,9.5-5.5,11.1-6.3c1.2,1.5,3.5,1.9,3.5,1.9c8.5,1.3,17-5.1,17-5.1
			c2.5,5.4,7.3,5.8,7.3,5.8c5.9,0.9,12.5-4,12.5-4c2.4,2.1,6,2,6,2c9.2,0.1,20.2-8.4,20.2-8.4c-0.3,2.6-0.6,4.4-0.6,4.4
			c-5.6,0.1-7.5,2.4-7.5,2.4c-1.6,2,0.4,3.3,0.4,3.3c2.5,1.7,6.5,0.2,6.5,0.2c1.9-0.6,3.3-2.2,3.3-2.2c1,0.2,1.8,0.7,1.8,0.7
			c0.9,0.4,1.1-0.3,1.1-0.3c0.3-0.8-0.3-1.7-0.3-1.7c-0.9-1.5-2-1.9-2-1.9c0.3-3.4,0.7-5.2,0.7-5.2c0.3-1.3,0.8-1.6,1.1-2
			c0.3-0.3,1.1-0.5,1.5-1.4C350.3,53.8,349.5,53,349.5,53 M205.6,46.4c0,0-5,11-10.4,17.4c0,0-3.6,4.2-6.1,3c0,0-3.1-0.7-1.5-10.6
			c0,0,2.5-14.3,11-26.3c0,0,3.8-5.3,7.7-6.6c0,0,2.2-0.8,3.2,0.6c0,0,2.3,2.2,0.6,10.3c0,0-0.8,4-3.5,7.9c0,0-0.9,1.2-0.6,1.7
			c0,0,0.2,0.4,0.9,0.2C206.8,44.1,206.3,44.9,205.6,46.4 M262.5,82.6c0,0-0.5,4.4-2.1,7c0,0-0.6,1.1-1.8,0.6c0,0-1.1-0.5-1.6-2.1
			c0,0-0.6-1.4-0.3-3c0,0,0.7-5.1,6.2-10.5C263,74.6,263.4,77.4,262.5,82.6 M280.7,58.4c0,0,1.2-0.9,2-0.7c0,0,0.6,0.2,0.4,0.9
			c0,0-0.2,1.4-4,3.7C279.1,62.4,278.4,60.2,280.7,58.4 M299.8,57.6c0,0-1.2-11.8,6.7-22.3c0,0,1.2-1.5,2.2-1.5c0,0,0.9-0.1,1.2,1.2
			c0,0,0.7,2.5-1,8.2C308.9,43.2,307.4,49.8,299.8,57.6 M321.4,56.1c0,0,0.9-0.4,1.4,0c0,0,0.5,0.3,0.1,1c0,0-1.3,2.2-3.9,3.8
			C318.9,60.9,318.4,57.7,321.4,56.1"/>
	</g>
	<g>
		<path class="st0" d="M349.9,59.5H349V59h2.3v0.5h-0.9v2.4h-0.5V59.5z M351.8,59.1h0.8l0.8,2.2l0,0l0.8-2.2h0.8v2.8h-0.5v-2.4l0,0
			l-0.8,2.4h-0.4l-0.8-2.4l0,0v2.4H352v-2.8H351.8z"/>
	</g>
</g>
</svg>
