<?xml version="1.0" encoding="utf-8"?>
<!-- Generator: Adobe Illustrator 21.0.0, SVG Export Plug-In . SVG Version: 6.00 Build 0)  -->
<svg version="1.1" id="Layer_1" xmlns="http://www.w3.org/2000/svg" xmlns:xlink="http://www.w3.org/1999/xlink" x="0px" y="0px"
	 viewBox="0 0 196.1 113.4" style="enable-background:new 0 0 196.1 113.4;" xml:space="preserve">
<style type="text/css">
	.st0{fill:#FFFFFF;}
</style>
<path class="st0" d="M190.4,40c0-1.3,0-3.6-0.3-4.7c-0.3-1.3-1-2.3-2.2-3.1c-1.9-1.4-4.3-2.1-7.2-2.1c-1.9,0-4.2,0.3-6.1,0.8
	c-1,0.3-1.8,0.6-2.4,0.9c-0.4,0.2-0.7,0.5-1,0.7c-0.4,0.4-0.6,0.9-0.6,1.5c0,0.6,0.2,1.1,0.5,1.6c0.4,0.6,1.1,0.9,1.8,0.9
	s1.4-0.2,2.1-0.4l0.2-0.1c1.3-0.4,2.9-0.9,5.4-0.9c1.1,0,2,0.1,2.7,0.4c0.6,0.2,1,0.5,1.3,0.7c0.4,0.3,0.5,0.5,0.6,0.9
	c0.1,0.3,0.1,1.3,0.1,2.3c-1.6-0.8-3.7-1.6-6.6-1.6c-2.9,0-5.5,0.8-7.4,2.3c-2,1.6-3.1,3.8-3.1,6.3c0,0.8,0.1,1.6,0.3,2.3l0.1,0.3
	h0.8c0.7,0,1.4,0.1,2.1,0.1h0.2c0.8,0,1.7,0.1,2.5,0.1h0.4l-1-1.4c-0.3-0.4-0.5-0.9-0.5-1.5c0-1.2,0.8-2.1,1.5-2.6
	c1.1-0.8,2.5-1.2,4.1-1.2c2.7,0,4.5,1,6.4,2.2l0.2,0.1v4.6h0.3c0.7,0,1.4,0,2.1,0c0.1,0,0.3,0,0.4,0c0.5,0,1.1,0,1.6,0h0.5l-0.1-2.3
	V40H190.4z"/>
<g>
	<g>
		<path class="st0" d="M29.8,43.4c-1,0-1.6,0.6-2.3,1.3c-1.2,1.2-3.3,3.3-7.2,3.3c-5.2,0-9.3-4.3-9.3-9.8s4.3-9.9,9.6-9.9
			c3.2,0,5,1.6,6.2,2.6c0.8,0.6,1.4,1.2,2.3,1.2c1.1,0,2.3-0.6,2.3-2.4c0-2.1-5-6.3-10.9-6.3c-6.9,0-14.4,5.7-14.4,14.8
			c0,4.1,1.6,7.8,4.2,10.4c3,1.3,14.7,2,17.7,2c2.5-1.6,4.1-3.6,4.1-4.9C32.1,44.3,30.9,43.4,29.8,43.4z"/>
		<path class="st0" d="M165,30.5c-0.4-0.4-1-0.6-1.6-0.6s-1.1,0.2-1.5,0.5c-0.5,0.4-0.7,0.9-0.9,1.6c-0.1,0.4-0.1,0.8-0.1,1.1v16.3
			h1c0.1,0,0.3,0,0.4,0h0.6c0.4,0,0.9,0,1.3,0l0.4,0.4l1.2-0.1V33c0-0.3,0-0.9-0.2-1.5C165.6,31.1,165.3,30.7,165,30.5z"/>
		<path class="st0" d="M163.7,22.4c-0.7,0-1.4,0.3-1.9,0.8s-0.8,1.2-0.8,1.9c0,0.7,0.3,1.4,0.8,1.9s1.2,0.8,1.9,0.8l0,0
			c0.7,0,1.4-0.3,1.9-0.8s0.8-1.2,0.8-1.9c0-0.7-0.3-1.4-0.8-1.9C165.1,22.7,164.4,22.4,163.7,22.4z"/>
		<path class="st0" d="M155.6,33.8l-0.1-0.1c-0.5-0.6-1.4-1.4-2.7-2.1c-1.3-0.6-2.8-0.9-4.7-0.9c-3.4,0-6.3,1.1-8.1,2.1
			c-0.1-0.2-0.2-0.4-0.4-0.6c-0.3-0.3-0.6-0.6-0.9-0.8c-0.4-0.3-0.9-0.4-1.3-0.4c-0.6,0-1.1,0.2-1.6,0.6c-0.5,0.5-0.8,1.1-0.8,1.8
			c0,0.4,0.1,0.7,0.2,1c0.1,0.2,0.1,0.3,0.2,0.5l0.4,1c0.2,0.8,0.3,2.1,0.3,3.8v5.9h0.6c0.2,0,0.3,0,0.5,0h0.4c0.4,0,0.8,0,1.2,0
			h0.8c0.1,0,0.3,0,0.4,0h1.1v-7.3c1.1-0.8,2.1-1.3,3-1.7c1.2-0.5,2.5-0.7,4.1-0.7c0.9,0,1.6,0.1,2.2,0.3c0.6,0.2,1,0.5,1.4,0.9
			c0.3,0.4,0.5,0.8,0.6,1.4c0.1,0.7,0.1,1.5,0.1,2.5v4.7h1.5c0.7,0,1.4,0.1,2.1,0.1l1.4,0.1V41c0-1.6,0-2.8-0.3-3.9
			C157,35.9,156.5,34.9,155.6,33.8z"/>
		<path class="st0" d="M132.3,32.7l-0.1-0.2l-0.2-0.2c-2.1-1.6-4.4-1.8-5.4-1.8c-2.1,0-4.2,0.8-6.3,2.4c-0.1-0.2-0.2-0.4-0.3-0.5
			c-0.3-0.4-0.6-0.8-1-1.1c-0.5-0.4-1.1-0.6-1.6-0.6c-0.7,0-1.4,0.3-1.9,0.8c-0.4,0.5-0.6,1.1-0.6,1.7c0,0.5,0.1,0.9,0.3,1.4
			c0.2,0.3,0.4,0.6,0.5,0.8c0.2,0.3,0.5,0.7,0.7,1.2c0.2,0.6,0.4,1.5,0.4,2.5v7.1l1.4-0.1c0.7,0,1.4-0.1,2.1-0.1h0.4
			c0.2,0,0.3,0,0.5,0h0.6v-7.3c0.7-0.9,1.4-1.5,2-2c0.9-0.7,1.9-1,2.9-1c0.2,0,0.6,0,1.1,0.1c0.4,0.1,1,0.3,1.4,0.7l0.3,0.3h0.5
			c0,0,0.1,0,0.2,0c0.3,0,0.7-0.1,1-0.2c0.4-0.1,0.9-0.4,1.3-1.1c0.2-0.4,0.3-0.8,0.3-1.3c0-0.4-0.1-0.8-0.2-1.2
			C132.5,33,132.4,32.8,132.3,32.7z"/>
		<path class="st0" d="M109.9,33.9c-2.4-2.2-5.8-3.4-9.4-3.4s-7,1.2-9.4,3.4c-2.5,2.2-3.8,5.3-3.8,8.7c0,2,0.5,3.9,1.4,5.6l0.1,0.1
			l1.2-0.1c0.8-0.1,1.5-0.1,2.3-0.2l2.5-0.2l-1-1.2c-1-1.2-1.5-2.5-1.5-4.1c0-1.9,0.8-3.6,2.2-4.9c1.5-1.3,3.7-2,6.1-2
			s4.5,0.7,6.1,2c1.5,1.3,2.2,2.9,2.2,4.9c0,1-0.2,2-0.7,2.9l-0.7,1.3l5.7-0.4l0.1-0.2c0.3-1.1,0.5-2.3,0.5-3.5
			C113.8,39.2,112.4,36.1,109.9,33.9z"/>
		<path class="st0" d="M88.4,28.7c0.3-0.2,0.6-0.5,0.8-0.9c0.2-0.4,0.3-0.8,0.4-1.2c0-0.5-0.2-1.1-0.5-1.5c-0.4-0.5-1-0.9-1.8-1.1
			c-0.6-0.2-1.4-0.2-2.3-0.2c-1.5,0-3,0.3-4.3,1c-1,0.5-1.9,1.1-2.4,1.8L78,26.9V27l0,0c-0.6,0.8-0.9,1.5-1.1,2.4
			c-0.3,1.1-0.3,2.4-0.3,4.1V49l1-0.1c0.1,0,0.2,0,0.4,0c0.5,0,0.9-0.1,1.4-0.1l2.1-0.1v-8.8h2c0.7,0,1.3-0.2,1.8-0.7
			c0.5-0.4,0.8-1.1,0.8-1.8c0-0.3-0.1-0.6-0.2-0.9c-0.2-0.5-0.6-0.9-1-1.2c-0.4-0.2-0.8-0.3-1.3-0.3h-2v-1.5c0-1.4,0.1-2.2,0.2-2.8
			s0.3-0.9,0.6-1.1c0.4-0.3,1.4-0.9,3-0.9c0.6,0,0.8,0.1,1,0.1l1.1,0.2h0.2C87.7,29,88.1,28.9,88.4,28.7z"/>
		<path class="st0" d="M70.3,22.4c-0.7,0-1.4,0.3-1.9,0.8s-0.8,1.2-0.8,1.9c0,0.7,0.3,1.4,0.8,1.9s1.2,0.8,1.9,0.8l0,0
			c0.7,0,1.4-0.3,1.9-0.8c0.5-0.4,0.8-1.1,0.8-1.8c0-0.7-0.3-1.4-0.8-1.9C71.7,22.7,71,22.4,70.3,22.4z"/>
		<path class="st0" d="M71.8,30.5c-0.4-0.4-1-0.6-1.6-0.6s-1.1,0.2-1.5,0.5c-0.5,0.4-0.7,0.9-0.9,1.6c-0.1,0.4-0.1,0.8-0.1,1.1v17.1
			h1c0.1,0,0.3,0,0.4,0h0.6c0.5,0,1,0,1.4-0.1l1.5-0.1V33c0-0.3,0-0.9-0.2-1.5C72.4,31.1,72.1,30.7,71.8,30.5z"/>
		<path class="st0" d="M64.1,21.1c0-0.3,0-0.9-0.2-1.5c-0.1-0.5-0.3-0.8-0.6-1.1c-0.4-0.4-1-0.7-1.6-0.7s-1.2,0.2-1.6,0.6
			c-0.5,0.5-0.7,1.1-0.7,1.6c-0.1,0.4-0.1,0.9-0.1,1.1v13.1V49v16.6c0,0.3,0,0.9,0.2,1.5c0.1,0.5,0.3,0.8,0.6,1.1
			c0.4,0.4,1,0.7,1.6,0.7s1.2-0.2,1.6-0.6c0.5-0.5,0.7-1.1,0.7-1.6c0.1-0.4,0.1-0.9,0.1-1.1V34.8v-0.2V21.1z"/>
		<path class="st0" d="M56.1,40.1c0-1.3,0-3.6-0.3-4.7c-0.3-1.3-1-2.3-2.2-3.1c-1.9-1.4-4.3-2.1-7.2-2.1c-1.9,0-4.2,0.3-6.1,0.8
			c-1,0.3-1.8,0.6-2.4,0.9c-0.4,0.2-0.7,0.5-1,0.7c-0.4,0.4-0.6,0.9-0.6,1.5c0,0.6,0.2,1.1,0.5,1.6c0.4,0.6,1.1,0.9,1.8,0.9
			s1.4-0.2,2.1-0.4l0.2-0.1c1.3-0.4,2.9-0.9,5.4-0.9c1.1,0,2,0.1,2.7,0.4c0.6,0.2,1,0.5,1.3,0.7c0.4,0.3,0.5,0.5,0.6,0.9
			c0.1,0.3,0.1,1.3,0.1,2.3c-1.6-0.8-3.7-1.6-6.6-1.6c-2.9,0-5.5,0.8-7.4,2.3c-2,1.6-3.1,3.8-3.1,6.3c0,0.8,0.1,1.6,0.3,2.3l0.1,0.3
			h0.8c0.7,0,1.4,0.1,2.1,0.1h0.2c0.8,0,1.7,0.1,2.5,0.1h0.4l-1-1.4c-0.3-0.4-0.5-0.9-0.5-1.5c0-1.2,0.8-2.1,1.5-2.6
			c1.1-0.8,2.5-1.2,4.1-1.2c2.7,0,4.5,1,6.4,2.2l0.2,0.1v4.6h0.3c0.7,0,1.4,0,2.1,0c0.1,0,0.3,0,0.4,0c0.5,0,1.1,0,1.6,0h0.5
			l-0.1-2.3v-7.1H56.1z"/>
	</g>
	<path class="st0" d="M195.8,50.3L195.8,50.3c-0.3-0.4-0.7-0.6-1.2-0.8c-0.3-0.1-0.6-0.1-0.7-0.1c-0.1,0-2.5-0.4-6.7-0.9
		c-0.3,0-0.5-0.1-0.8-0.1h-0.3c-0.7-0.1-1.3-0.2-2.1-0.2l-0.4-0.1c-0.3,0-0.6-0.1-0.9-0.1c-4-0.5-8.3-0.9-12.6-1.2
		c-0.3,0-0.5,0-0.8-0.1h-0.5c-0.6,0-1.3-0.1-1.9-0.1c-0.1,0-0.3,0-0.4,0c-0.3,0-0.6,0-0.9-0.1c-0.9-0.1-1.8-0.1-2.7-0.2
		c-0.3,0-0.5,0-0.8-0.1l-2.8-0.2c-0.3,0-0.6,0-0.9,0c-1.4-0.1-2.8-0.1-4.1-0.2c-0.3,0-0.6,0-0.8,0h-0.1c-0.1,0-0.2,0-0.3,0
		c-0.7,0-1.4-0.1-2.1-0.1h-0.4c-0.3,0-0.6,0-0.9,0c-4-0.1-8-0.2-11.9-0.2h-0.1H137c-0.1,0-0.3,0-0.4,0h-0.8c-0.4,0-0.8,0-1.2,0h-0.4
		c-0.3,0-0.6,0-0.8,0c-4.7,0.1-9.4,0.2-14.2,0.4c-0.3,0-0.6,0-0.9,0h-0.4c-0.7,0-1.4,0.1-2.1,0.1h-0.4c-0.3,0-0.5,0-0.8,0
		c-1,0.1-2,0.1-3,0.2c-0.4,0-0.9,0.1-1.3,0.1h-0.1c-0.2,0-0.3,0-0.5,0l-2.6,0.2c-0.2,0-0.5,0-0.7,0.1c-3.1,0.2-6.2,0.5-9.1,0.7h-0.1
		c-1.4,0.1-2.8,0.2-4.3,0.3c-0.6,0.1-1.3,0.1-1.9,0.2h-0.2c-0.8,0.1-1.5,0.1-2.3,0.2l-0.8,0.1c-0.1,0-0.1,0-0.2,0
		c-2,0.1-3.6,0.3-5.2,0.4c-0.3,0-0.6,0-0.9,0.1l-1,0.1c-0.4,0-0.9,0.1-1.4,0.1c-0.1,0-0.2,0-0.4,0c-0.3,0-0.5,0-0.8,0
		c-1.6,0.1-3.1,0.2-4.6,0.2c-0.3,0-0.6,0-0.9,0h-0.4c-0.5,0-0.9,0-1.4,0.1h-0.6c-0.1,0-0.2,0-0.4,0c-0.3,0-0.6,0-0.8,0
		c-1.6,0.1-3.1,0.1-4.5,0.1c-0.3,0-0.6,0-0.9,0h-0.4c-0.5,0-0.9,0-1.4,0H61c-0.1,0-0.3,0-0.4,0c-0.3,0-0.6,0-0.8,0c-1,0-2.1,0-3.2,0
		c-0.1,0-0.2,0-0.3,0c-0.6,0-1.1,0-1.6,0c-0.1,0-0.3,0-0.4,0c-0.7,0-1.4,0-2.1,0h-0.1h-0.3c-3.7,0-7.4-0.1-11.1-0.3
		c-0.8,0-1.7-0.1-2.5-0.1H38c-0.8,0-1.6-0.1-2.4-0.1h-0.3H35c-1,0-1.9-0.1-2.8-0.2c-0.2,0-0.5,0-0.7,0h-0.2c-0.2,0-0.3,0-0.5,0h-0.5
		c-0.8,0-1.5-0.1-2.2-0.1c-0.1,0-0.1,0-0.2,0c-0.6,0-1.1-0.1-1.7-0.1c-3.5-0.3-6.9-0.6-10.2-0.9c-0.4,0-0.9-0.1-1.3-0.1h-0.2
		c-0.9-0.1-1.7-0.2-2.5-0.3l-0.6-0.1c-0.3,0-0.6-0.1-0.8-0.1c-2.3-0.3-4-0.5-5.1-0.7C4.7,46,4,45.9,3.6,45.8l-1-0.1
		c-0.1,0-0.4-0.1-0.8-0.1S1,45.7,0.7,45.9c-0.2,0.1-0.3,0.3-0.5,0.5C0.1,46.7,0,47,0,47.3v0.1c0,0.4,0.1,0.8,0.4,1.2
		c0.4,0.4,0.8,0.6,1.1,0.7c0.2,0.1,0.3,0.1,0.4,0.1s0.1,0,0.1,0h0.1c0.6,0.1,1.9,0.3,4,0.6c8.5,1.2,26.3,3.1,49.8,3.1
		c7.2,0,14.2-0.2,21.5-0.6c0.3,0,0.6,0,0.9,0l0.9-0.1c0.5,0,1-0.1,1.4-0.1H81c0.3,0,0.5,0,0.8-0.1c5.3-0.3,10.2-0.8,15.1-1.2h0.2
		c11.9-1,24.2-2,40.3-2c31.1,0,54.8,3.8,56.1,4c0,0,0.1,0,0.2,0c0.2,0,0.3,0,0.4,0l0,0c0.4,0,0.8-0.1,1.1-0.3
		c0.4-0.3,0.8-0.7,0.8-1.3c0-0.1,0-0.2,0-0.3C196.1,50.9,196,50.6,195.8,50.3z"/>
</g>
<g>
	<path class="st0" d="M89.9,57.6c-1,0-1.9,0.8-1.9,1.9v4.8c-0.9-1.1-2.1-2-4.1-2c-3.1,0-6,2.4-6,6.8l0,0c0,4.4,2.9,6.8,6,6.8
		c1.9,0,3.2-0.9,4.1-2.1V74c0,1,0.8,1.9,1.9,1.9c1,0,1.9-0.8,1.9-1.9V59.5C91.7,58.4,90.9,57.6,89.9,57.6z M88,69.1
		c0,2.2-1.4,3.6-3.2,3.6c-1.7,0-3.2-1.4-3.2-3.6l0,0c0-2.2,1.5-3.6,3.2-3.6C86.6,65.4,88,66.9,88,69.1L88,69.1z"/>
	<path class="st0" d="M101.3,62.4c-1.1,0-2,1.2-2.5,2.5v-0.6c0-1-0.8-1.9-1.9-1.9c-1,0-1.9,0.8-1.9,1.9V74c0,1,0.8,1.9,1.9,1.9
		c1,0,1.9-0.8,1.9-1.9v-3.5c0-2.6,1.1-4.1,2.9-4.5c0.8-0.2,1.4-0.8,1.4-1.7C103.1,63.1,102.5,62.4,101.3,62.4z"/>
	<path class="st0" d="M110.8,62.3c-3.8,0-6.5,3.1-6.5,6.8v0.1c0,4,2.9,6.8,6.9,6.8c1.9,0,3.4-0.6,4.6-1.6c0.3-0.2,0.5-0.6,0.5-1.1
		c0-0.8-0.6-1.5-1.4-1.5c-0.4,0-0.6,0.1-0.9,0.3c-0.8,0.6-1.6,0.9-2.6,0.9c-1.7,0-2.8-0.9-3.2-2.6h7.4c1,0,1.7-0.7,1.7-1.8
		C117.1,65.9,115.2,62.3,110.8,62.3z M107.9,68.1c0.3-1.7,1.3-2.8,2.8-2.8c1.6,0,2.5,1.1,2.8,2.8H107.9z"/>
	<path class="st0" d="M125.4,62.4c-1.7,0-3,0.2-4.2,0.7c-0.6,0.2-1,0.8-1,1.4c0,0.9,0.7,1.5,1.5,1.5c0.2,0,0.3,0,0.5-0.1
		c0.7-0.2,1.5-0.4,2.6-0.4c1.9,0,2.8,0.9,2.8,2.4v0.2c-0.9-0.3-1.9-0.5-3.2-0.5c-3.1,0-5.3,1.3-5.3,4.2l0,0c0,2.6,2,4,4.5,4
		c1.8,0,3.1-0.7,4-1.7l0,0c0,0.8,0.7,1.5,1.8,1.5c1,0,1.8-0.8,1.8-1.8v-6c0-1.8-0.4-3.2-1.4-4.2C128.9,62.9,127.4,62.4,125.4,62.4z
		 M127.7,71c0,1.3-1.2,2.3-2.9,2.3c-1.2,0-2-0.6-2-1.6l0,0c0-1.2,1-1.8,2.6-1.8c0.9,0,1.7,0.2,2.4,0.5L127.7,71L127.7,71z"/>
	<path class="st0" d="M150.5,78.4c-1.9,0-3.2,0.9-4.1,2.1V68.3c0-1.8,0.9-2.7,2.3-2.7c1.4,0,2.2,0.9,2.2,2.7v5.6
		c0,1,0.8,1.9,1.9,1.9c1,0,1.9-0.8,1.9-1.9v-6.8c0-3.2-1.7-4.8-4.4-4.8c-1.8,0-3.2,0.7-4.3,2.1c-0.7-1.3-2-2.1-3.7-2.1
		c-1.9,0-3,1-3.9,2.1v-0.1c0-1-0.8-1.9-1.9-1.9c-1,0-1.9,0.8-1.9,1.9V74c0,1,0.8,1.9,1.9,1.9c1,0,1.9-0.8,1.9-1.9v-5.6
		c0-1.8,0.9-2.7,2.3-2.7c1.4,0,2.2,0.9,2.2,2.7v21.7c0,1,0.8,1.9,1.9,1.9c1,0,1.9-0.8,1.9-1.8l0,0c0.9,1.1,2.1,2,4.1,2
		c3.1,0,6-2.4,6-6.8l0,0C156.4,80.8,153.5,78.4,150.5,78.4z M152.7,85.2c0,2.2-1.5,3.6-3.2,3.6s-3.2-1.4-3.2-3.6l0,0
		c0-2.2,1.4-3.6,3.2-3.6C151.2,81.5,152.7,83,152.7,85.2L152.7,85.2z"/>
	<path class="st0" d="M161.2,78.5c-1,0-1.9,0.8-1.9,1.9v9.7c0,1,0.8,1.9,1.9,1.9c1,0,1.9-0.8,1.9-1.9v-9.7
		C163.1,79.3,162.2,78.5,161.2,78.5z"/>
	<path class="st0" d="M161.2,73.7c-1.2,0-2.1,0.7-2.1,1.7l0,0c0,1.1,0.9,1.8,2.1,1.8c1.2,0,2.1-0.7,2.1-1.8l0,0
		C163.3,74.4,162.4,73.7,161.2,73.7z"/>
	<path class="st0" d="M177.9,78.5c-1,0-1.9,0.8-1.9,1.8l0,0c-1-1.1-2.2-2-4.2-2c-3,0-5.8,2.2-5.8,6.1l0,0c0,3.9,2.8,6.1,5.8,6.1
		c2,0,3.2-0.8,4.3-2.1V89c0,2.4-1.2,3.6-3.8,3.6c-1.4,0-2.5-0.3-3.6-0.8c-0.2-0.1-0.4-0.1-0.6-0.1c-0.8,0-1.5,0.7-1.5,1.5
		c0,0.7,0.4,1.2,1.1,1.4c1.5,0.6,3.1,0.9,4.8,0.9c2.5,0,4.4-0.5,5.7-1.8c1.1-1.1,1.7-2.8,1.7-5.2V80C179.8,79.3,179,78.5,177.9,78.5
		z M176.1,84.6c0,1.8-1.4,3-3.2,3s-3.2-1.2-3.2-3l0,0c0-1.8,1.4-3,3.2-3C174.7,81.5,176.1,82.7,176.1,84.6L176.1,84.6z"/>
</g>
</svg>
