<?xml version="1.0" encoding="utf-8"?>
<!-- Generator: Adobe Illustrator 21.0.0, SVG Export Plug-In . SVG Version: 6.00 Build 0)  -->
<svg version="1.1" id="Layer_1" xmlns="http://www.w3.org/2000/svg" xmlns:xlink="http://www.w3.org/1999/xlink" x="0px" y="0px"
	 viewBox="0 0 222.5 113.6" style="enable-background:new 0 0 222.5 113.6;" xml:space="preserve">
<style type="text/css">
	.st0{fill:#FFFFFF;}
</style>
<g>
	<g>
		<path class="st0" d="M142.2,67.3c3.2-0.4,8.9,4.9,7.9,7.6c-1.1,3.2-4,5.5-6.5,7.1c-0.4,0.3-3.8,1.4-3.3-0.4c0.6-2.2,7-8.4,3-11.7
			c-0.3-0.2-0.8-0.8-1.6-0.6c-2,0.5-3.2,7.7-3.1,11.2c0.3,11.5,7.5,4.9,13.1,5.3c0.5,1.7-1.7,2.6-3.2,3.7c-1.1,0.8-3.7,2.2-5.5,2.7
			C130.2,95.9,126.8,69.1,142.2,67.3z"/>
		<path class="st0" d="M119.3,66.8c3-0.8,11.5,1.6,11.9,2.7c0,0,0,0.9,0,0.8c-1.1,2.9-1.3,6.4-2.1,10.1c-0.6,2.8-2,6-2.5,9
			c0,0.3-0.4,1.7-0.5,2.3c0,0.2-0.1,0.7-0.1,0.7l-0.1,0.2c-1,0.4-1.1-0.9-1.4-1.5c-1.4-2.7-4.2-8.8-3.2-13.4c0.4-2.2,1.8-5,1.4-7.8
			C122.5,69,118,67.2,119.3,66.8z"/>
		<path class="st0" d="M93.6,60.3c5.9-0.7,11.9,1.6,14.8,3.7c3.8,2.7,8.5,7.2,9.9,12.1c3.6,12.5-10.4,26.7-17.6,31.2
			c-5,3-18.8,8.5-23,5.4c-0.7-0.5-0.7-1.2-0.8-2.3c-0.5-2.9,7.6-37.8,8.9-39c0.1-0.1,0.6-0.5,0.7-0.5c2.1-0.5,6,0,7.7,0.1
			c-2,6.8-3.6,13.7-5.1,21.7c-0.7,3.5-1.9,6.6-2.1,11c2.1-0.6,4.1-1.7,5.8-2.5c4.7-2.3,9.4-5.9,12-10.4c7.1-12,3.7-23-10-25.9
			c-4.3-0.9-7.1-0.3-12.3,0.1c0,0-1,0.2-2.2,0.4c-1.7,0.3-3.9,1.4-5.7,0.5c1.8-3.4,9.7-4.5,14.1-5.2C90.2,60.5,92.5,60.5,93.6,60.3z
			"/>
		<path class="st0" d="M127,58.1c5-0.7,6,6.2,1.9,6.8C124,65.6,122.6,58.8,127,58.1z"/>
		<path class="st0" d="M178.1,52.7c4.7,0.5,9.1,3.9,11.5,7.3c3.1,4.4,2.2,10.4,0,15.1c-2.8,5.7-8.7,8.4-14.9,4
			c-1.4-1-2.6-3.5-3.3-5.2c0,6.3-1.5,13.5-2.7,18.6c-1.4,6.1-3.1,9.6-6.4,14.5c-1,1.5-3.1,4.6-4.5,3.8c-1.5-0.7,1.6-7.7,2.2-10.1
			c0.6-2.7,1.1-4,1.6-6.9c0.4-2.8,1.7-6.6,1.7-10c-2.1,0.5-5,4.4-7.6,2.9c-2.6-1.4-3.9-3.7-4.4-7.3c0,0,0.2-0.6,0-0.7
			c0.5-4.2,3.1-8.4,5.7-10.6c1.3-1.1,1.3-0.9,2.6-1.8c1-0.7,2.9-1.1,4.3-1.7c0.7-0.3,3.5-1.1,3.1,0.8c-0.2,0.9-2.7,1.8-3.6,2.4
			c-2.8,1.9-6.9,9.2-4.5,11.5c0.6,0.6,1.7,0.5,2.7,0.2c4.8-1.3,4.5-8.9,9.5-7.4c0-6.5,5.2-15.6,11.5-12.5c1,0.5,2.8,1.9,3.1,3
			c0.2,0.7-0.3,1.7-0.6,1.9c-0.8,0.6-2.8-0.5-3.7,0c-1.6,0.8-2.2,3.8-2.3,6c-0.1,1.9,1.3,4.8,2.8,3.6c5.6-4.6,7.4-11.9,0.5-17.1
			c-1.5-1.1-3.7-1-5.1-1.9C176.6,54.6,177.8,53.1,178.1,52.7z"/>
		<path class="st0" d="M165.4,37.2c1.6,0,3.8,0.7,5.2,1.2c1,0.3,3.5,3.1,1.1,3.5c-1.1,0.1-3.3-1.1-4.4-1.3c-1-0.2-11.3,3.2-8.2-1.1
			C159.8,38.4,163.7,37.2,165.4,37.2z"/>
		<path class="st0" d="M90.1,37c1.1-0.1,2.5,1.1,3.2,1.5c1.6,1.1,2.5,3.6,3,5.5c1.4-1.1,2.3-2.7,3.7-3.6c3.6-2.1,7.4,1.7,8.8,3.8
			c1.9,2.9,3.6,6.2,6.4,8.2c1.7,1.2,0.7,2.1-1.4,2.1c-6.9,0.1-8.4-5.1-12.2-8.3c-0.4-0.3-1.2-1.1-1.9-1c-2.7,0.6-1.8,4.5-2.9,7
			c-0.3,0.7-4.4,1.9-5.2,2.1c-2.2,0.7-3.6-1.4-3-3.7c0.9-3.5,2.6-8.9,1.1-12.8C89.6,37.9,89.4,37.1,90.1,37z"/>
		<path class="st0" d="M77.2,36.3c0,0,1.1-0.2,1.4-0.1c1.1,0,6.1,0.2,5.5,2.4c0,0-7.8,2.9-9.5,4.1c-1.9,1.3-4.5,3.6-5.3,6
			c-0.6,1.5,1.2,2.3,1.2,2.3c0.5,0.2,1.1,0,1.5-0.1c1.4-0.3,2.3-0.9,3.2-1.5c1.4-1,7.7-9.5,10.1-6.7c0.5,0.6,0.4,1.8,0.1,2.7
			c-0.9,3.1-1,8-2.9,10.3c-1.4,1.8-2.4-0.6-3-1.4c-0.8-1.1-1.3-1.9-1.7-3.5c-4,2.5-11.5,7.9-15.7,2.1c-0.7-0.9-1.1-3.6-0.6-5.5
			c1.4-5.1,7.7-9.1,12.6-10.6C75.5,36.6,75.5,36.6,77.2,36.3z"/>
		<path class="st0" d="M130,27.2c13.3-1.1,31.7,12.5,27.1,26.6c-0.8,2.5-1.7,9.5-5.2,7.8c-5.1-2.4-1.5-12.5-2.7-15.6
			c-1.5-3.8-7.3-9.3-11.2-10.8c-2.6-1-6.1-2.6-9.8-2c-2.4,0.4-5.4,1.4-6.8,3c-0.4,0.5-0.8,1.6-1.3,1.9c-0.5,0.3-0.9,0-1.3-0.1
			c0.1-2,0.2-3.7,1.5-5c1-0.9,3-0.9,4-1.7c2.1-1.5,2.5-3,5.5-4C130.3,27.2,129.6,27.3,130,27.2z"/>
		<path class="st0" d="M106,24.4c1.5,0.3,2.5,1.2,3.7,1.9c0.9,0.5,1.9,0.9,2.5,1.8C115.1,32.1,104,28,106,24.4z"/>
		<path class="st0" d="M41.6,72.5c0.4,0,0.4,0.6,0,1.5c-0.6,1.5-10.8,10.3-6.5,12c1.5,0.6,3.9,0,5-0.5c3.9-1.6,7.6-2.9,11.2-4.6
			c3.4-1.7,13.8-7.6,10.6-12.4c-5.4-8.1-29.8-8.6-28.1-22c0.6-5,3.6-8.2,6.5-10.8c6.1-5.4,14.9-11.5,24.6-12.8
			c2.1-0.3,3.1,2.2,4,3.6c0.3,0.4,2,3.4,0.6,3.8c-2,0.6-4.3,0.2-6.3,0.7c-5,1.2-18.8,8.6-17.4,15.2c0.7,3.1,4.5,4.2,7.1,5.4
			c6.3,2.8,19.7,9.2,21.2,16.2c0.9,4.3-4.4,11.1-6.4,12.8c-3.4,2.9-6.6,5.3-9.9,7c-5.8,3-25.5,12.9-32.5,7.7
			c-8.5-6.3,4.2-20.3,9.3-22c0.1,0,0.1,0,0.2-0.1C34.9,73.1,37.4,72.3,41.6,72.5z"/>
		<path class="st0" d="M170.8,20.8c1.2,0,1.8,0.2,2.5,0.7c-0.4,0.7-1.1,1.3-1.9,1.4c-4.3,0.9-8,0.9-11.7,2.7
			c-2.9,1.5-5.1,5.4-8.1,6.8l-0.6,0.2c-1,0-1.7-1.4-1.8-2.3c-0.4-4.8,2.2-5.2,6.1-7.1C158.2,21.9,166.4,20.9,170.8,20.8z"/>
		<path class="st0" d="M109.2,5.2c2.8,1.1,2.4,3.8,3.8,6.1c0.8,1.3,2.2,2.3,3,3.9c0.9,1.9,2.4,3.3,3.3,5.4c0.4,0.8,2.8,5.7-0.1,4.4
			c-0.3-0.2-1.6-1.2-1.8-1.5c-1.8-2.9-2.8-6.1-4.4-9c-1-1.8-2.8-3.1-3.7-5C108.8,8.2,108.9,6.4,109.2,5.2z"/>
		<path class="st0" d="M145.3,0c0.9,0.3,0.7,0.8,0.7,0.8c-1.6,1.5-6.2,13.4-6.8,16.7c-0.4,2.4-0.7,5.3-1.7,7
			c-0.2,0.4-1.5,0.4-1.9,0.6c-2.8,1.2-2.2-5.1-1.7-7.7c0.4-1.7,1.1-5.1,2.1-6.4c0.7-0.9,2-1.2,2.6-2.3C141,4.9,142.1,3.1,145.3,0z"
			/>
	</g>
	<g>
		<path class="st0" d="M196.8,63c1.8,0,3.2,1.5,3.2,3.3c0,1.9-1.4,3.3-3.3,3.3c-1.8,0-3.3-1.5-3.3-3.3C193.5,64.4,195,63,196.8,63
			L196.8,63z M196.8,63.5c-1.4,0-2.6,1.2-2.6,2.8c0,1.6,1.2,2.8,2.7,2.8s2.6-1.2,2.6-2.8C199.4,64.7,198.2,63.5,196.8,63.5
			L196.8,63.5z M196.1,68.2h-0.6v-3.7c0.3,0,0.6-0.1,1-0.1c0.6,0,0.9,0.1,1.1,0.3c0.2,0.2,0.3,0.4,0.3,0.8c0,0.5-0.3,0.8-0.7,0.9
			l0,0c0.3,0.1,0.5,0.4,0.6,0.9c0.1,0.6,0.2,0.8,0.2,0.9h-0.6c-0.1-0.1-0.2-0.5-0.2-0.9c-0.1-0.5-0.3-0.6-0.8-0.6H196L196.1,68.2
			L196.1,68.2z M196.1,66.1h0.4c0.5,0,0.9-0.2,0.9-0.6c0-0.3-0.2-0.6-0.9-0.6c-0.2,0-0.3,0-0.4,0V66.1z"/>
	</g>
</g>
</svg>
