<?xml version="1.0" encoding="utf-8"?>
<!-- Generator: Adobe Illustrator 21.0.0, SVG Export Plug-In . SVG Version: 6.00 Build 0)  -->
<svg version="1.1" id="Layer_1" xmlns="http://www.w3.org/2000/svg" xmlns:xlink="http://www.w3.org/1999/xlink" x="0px" y="0px"
	 viewBox="0 0 206.5 93.9" style="enable-background:new 0 0 206.5 93.9;" xml:space="preserve">
<style type="text/css">
	.st0{fill:#FFFFFF;}
</style>
<g>
	<path class="st0" d="M105.5,66.8h0.4c0.1,0,0.2,0,0.3,0c0.1,0,0.2,0,0.2-0.1c0.1,0,0.1-0.1,0.2-0.1c0-0.1,0.1-0.1,0.1-0.2
		c0-0.1,0-0.2-0.1-0.2c0-0.1-0.1-0.1-0.2-0.1c-0.1,0-0.1,0-0.2,0c-0.1,0-0.2,0-0.3,0h-0.4V66.8L105.5,66.8z M104.9,65.5h1.2
		c0.4,0,0.6,0.1,0.8,0.2c0.2,0.2,0.3,0.4,0.3,0.7c0,0.3-0.1,0.5-0.2,0.6c-0.1,0.1-0.3,0.2-0.5,0.2l0.8,1.3h-0.6l-0.8-1.2h-0.4v1.2
		h-0.6V65.5L104.9,65.5z M103.8,67c0,0.3,0.1,0.6,0.2,0.8c0.1,0.3,0.3,0.5,0.5,0.7c0.2,0.2,0.4,0.3,0.7,0.5c0.3,0.1,0.5,0.2,0.8,0.2
		c0.3,0,0.6-0.1,0.8-0.2c0.3-0.1,0.5-0.3,0.7-0.5c0.2-0.2,0.4-0.4,0.5-0.7c0.1-0.3,0.2-0.5,0.2-0.8c0-0.3-0.1-0.6-0.2-0.8
		c-0.1-0.3-0.3-0.5-0.5-0.7c-0.2-0.2-0.4-0.4-0.7-0.5c-0.3-0.1-0.5-0.2-0.8-0.2c-0.3,0-0.6,0.1-0.8,0.2c-0.3,0.1-0.5,0.3-0.7,0.5
		c-0.2,0.2-0.3,0.4-0.5,0.7C103.8,66.5,103.8,66.7,103.8,67L103.8,67z M103.3,67c0-0.4,0.1-0.7,0.2-1c0.1-0.3,0.3-0.6,0.6-0.8
		c0.2-0.2,0.5-0.4,0.8-0.6c0.3-0.1,0.7-0.2,1-0.2c0.4,0,0.7,0.1,1,0.2c0.3,0.1,0.6,0.3,0.8,0.6c0.2,0.2,0.4,0.5,0.6,0.8
		c0.1,0.3,0.2,0.7,0.2,1c0,0.4-0.1,0.7-0.2,1c-0.1,0.3-0.3,0.6-0.6,0.8c-0.2,0.2-0.5,0.4-0.8,0.6c-0.3,0.1-0.7,0.2-1,0.2
		c-0.4,0-0.7-0.1-1-0.2c-0.3-0.1-0.6-0.3-0.8-0.6c-0.2-0.2-0.4-0.5-0.6-0.8C103.4,67.7,103.3,67.4,103.3,67L103.3,67z"/>
	<path class="st0" d="M16,30.1c-3.9,0-6.9-1.3-9.2-4.1v3.6H0V18.4h5.4c1.6,2.4,5.8,5.8,10.2,5.8c1.6,0,3.6-0.5,3.6-2.1
		c0-1.4-1.7-2-3.1-2.2l-4.9-0.7c-5.8-0.8-10.7-3.6-10.7-9C0.5,3.4,4.4,0,11.2,0c3.2,0,5.5,1.1,7.3,3.9V0.5h6.8v9.2h-5.8
		c-1.3-1.2-4.4-3.9-7.8-3.9c-1.7,0-4.1,0.1-4.1,1.9c0,1.4,2.8,1.9,3.7,1.9l5.8,0.8c6.6,0.9,9.9,4.6,9.9,9.4
		C26.9,25.1,24.2,30.1,16,30.1"/>
	<path class="st0" d="M39.9,19.4c-2.1,0-4.5,0.9-4.5,3.3c0,1.2,1,1.8,1.8,1.8c1.6,0,2.7-1.6,2.7-4.5V19.4L39.9,19.4z M46.5,30.1
		c-3.4,0-5.9-1.2-6.6-4.3c-0.6,1.3-1.6,4.3-7.4,4.3c-3.1,0-6.3-1.4-6.3-5.7c0-6,7.3-7.6,13.8-7.6v-0.9c0-2.1-0.8-2.5-2.1-2.5
		c-1.4,0-2.4,0.8-2.4,3h-8.1c0,0-0.7-9,10.5-9c7,0,10.2,1.6,10.2,6.2v9.5c0,1.2,0,1.8,1,1.8c0.6,0,1-0.3,1-1.8v-1.4h3.9
		C53.8,24.2,54.7,30.1,46.5,30.1"/>
	<path class="st0" d="M67.9,29.6v-6.3h1.9V17c0-2.5,0-4.4-1.9-4.4c-2.1,0-2.9,1.7-2.9,4.4v6.3h1.9v6.3H53.8v-6.3h2.9v-9.2h-2.9V7.8
		H65v2.9c0.5-1.2,2.3-3.4,6.3-3.4c5,0,6.8,3,6.8,6.8v9.2H81v6.3H67.9L67.9,29.6z"/>
	<polygon class="st0" points="21.8,46 21.8,39.7 14.5,39.7 14.5,44.1 19.5,44.1 19.5,49.9 14.5,49.9 14.5,54.2 19.4,54.2 19.4,61.5 
		0,61.5 0,54.2 4.8,54.2 4.8,39.7 0,39.7 0,32.4 29.9,32.4 29.9,46 21.8,46 	"/>
	<path class="st0" d="M43.3,49.4c0-1.9,0.1-3.9-1.9-3.9c-1.8,0-2.4,1.9-2.4,3.9v5.8h2.9v6.3H27.8v-6.3h2.9V46h-2.9v-6.3h11.2v3.7
		c0.5-1,1.7-4.1,6.3-4.1c5.1,0,5.4,5.1,5.4,6.8v3.4H43.3L43.3,49.4z"/>
	<path class="st0" d="M63,51.4c-2.1,0-4.5,0.9-4.5,3.3c0,1.2,1,1.8,1.8,1.8c1.6,0,2.7-1.5,2.7-4.5V51.4L63,51.4z M69.6,62
		c-3.4,0-5.9-1.2-6.6-4.3C62.4,59,61.4,62,55.5,62c-3.1,0-6.3-1.4-6.3-5.7c0-6,7.3-7.6,13.8-7.6v-0.9c0-2.1-0.8-2.6-2.1-2.6
		c-1.4,0-2.4,0.8-2.4,3h-8.1c0,0-0.7-9,10.5-9c7,0,10.2,1.6,10.2,6.2v9.5c0,1.2,0,1.8,1,1.8c0.6,0,1-0.4,1-1.8v-1.4h3.9
		C76.9,56.1,77.7,62,69.6,62"/>
	<path class="st0" d="M90.8,61.5v-6.3h1.9v-6.3c0-2.5,0-4.4-1.9-4.4c-2.1,0-2.9,1.8-2.9,4.4v6.3h1.9v6.3H76.7v-6.3h2.9V46h-2.9v-6.3
		h11.2v2.9c0.5-1.2,2.3-3.4,6.3-3.4c5,0,6.8,3,6.8,6.8v9.2h2.9v6.3H90.8L90.8,61.5z"/>
	<path class="st0" d="M114.5,62c-6.5,0-12.1-5-12.1-11.7c0-6.4,5.7-11.1,12.1-11.1c7.3,0,10.4,5.1,10.4,9.7h-8.4
		c0-2.9-1-3.4-2.1-3.4c-1.7,0-2.3,2.7-2.3,5.3c0,2.9,0.8,5.1,3.4,5.1c1.4,0,2.6-0.8,2.6-4.6h7.1C125.2,51.3,126.7,62,114.5,62"/>
	<path class="st0" d="M128.2,32.4h8.3v6.3h-8.3V32.4L128.2,32.4z M125.3,61.5v-6.3h2.9V46h-2.9v-6.3h11.2v15.5h2.9v6.3H125.3
		L125.3,61.5z"/>
	<path class="st0" d="M152.6,62c-4.3,0-6.5-2.4-6.8-2.9v2.4H140v-8.1h6.3c0,0,2.3,3.9,6,3.9c0.7,0,2.2-0.1,2.2-1.3
		c0-1-1.1-1.4-3.4-1.9l-2.9-0.7c-5.1-1.2-7.8-4-7.8-6.9c0-4.8,3.3-7.2,8-7.2c1.7,0,4.6,0.5,6.1,2.4v-2.4h5.8v7.4h-6.3
		c0,0-1.9-3.2-4.4-3.2c-0.9,0-2.3-0.1-2.3,1.2c0,0.9,1.2,1.3,2.8,1.7l3.9,1c3.5,0.9,7.6,2.6,7.6,7.2C161.7,59.6,158.2,62,152.6,62"
		/>
	<path class="st0" d="M173.3,62c-6.6,0-12.1-5-12.1-11.7c0-6.4,5.7-11.1,12.1-11.1c7.2,0,10.4,5.1,10.4,9.7h-8.4
		c0-2.9-1-3.4-2.1-3.4c-1.7,0-2.2,2.7-2.2,5.3c0,2.9,0.8,5.1,3.4,5.1c1.4,0,2.6-0.8,2.6-4.6h7.1C183.9,51.3,185.4,62,173.3,62"/>
	<path class="st0" d="M194.9,45c-1.9,0-2.9,1.9-2.9,5.5c0,3.7,1,5.6,2.9,5.6c1.9,0,2.9-1.9,2.9-5.6C197.8,46.9,196.8,45,194.9,45
		 M194.9,62c-6.4,0-11.6-5.1-11.6-11.4c0-6.3,5.2-11.4,11.7-11.4c6.4,0,11.6,5.1,11.6,11.4C206.5,56.9,201.3,62,194.9,62"/>
	<polygon class="st0" points="6.2,91.5 11.1,91.5 11.1,66.4 2.2,66.4 2.2,73 0,73 0,64.4 24.6,64.4 24.6,73 22.4,73 22.4,66.4 
		13.6,66.4 13.6,91.5 18.4,91.5 18.4,93.5 6.2,93.5 6.2,91.5 	"/>
	<path class="st0" d="M23.5,91.8h3.3V75.2h-3.3v-1.7H29v3.9h0.1c0.7-2.6,2.8-4.4,5.3-4.4c0.5,0,1.1,0,1.6,0.1v2
		C35.5,75.1,35,75,34.5,75c-4.5,0-5.5,4.5-5.5,8.3v8.5h4.4v1.7h-9.9V91.8L23.5,91.8z"/>
	<path class="st0" d="M44.4,92.2c5.3,0,7.1-4.3,7.1-9.1h-4.6c-3,0-7.6,0.5-7.6,4.5C39.3,90.5,41.7,92.2,44.4,92.2 M51.5,89.5
		L51.5,89.5c-1.3,3.1-4.4,4.4-7.6,4.4c-4.1,0-7.1-2-7.1-6.4c0-5.7,6.3-6.1,10.4-6.1h4.3V80c0-3.6-2-5.3-5.6-5.3
		c-3.1,0-5.4,1.2-5.8,4.3h-2.5c0.5-4.4,3.9-6,8.1-6c5.1,0,8,1.8,8,7v11.8h3v1.7h-5.2V89.5L51.5,89.5z"/>
	<polygon class="st0" points="76.5,75.2 74.4,75.2 67.3,93.5 64.3,93.5 57.3,75.2 55.2,75.2 55.2,73.5 62.9,73.5 62.9,75.2 
		59.8,75.2 65.8,91.3 65.9,91.3 72.1,75.2 69,75.2 69,73.5 76.5,73.5 76.5,75.2 	"/>
	<path class="st0" d="M92.8,82.2c-0.1-4.3-2.5-7.5-7-7.5c-4.2,0-6.8,3.4-7,7.5H92.8L92.8,82.2z M78.8,83.9c0,4.8,2.4,8.3,7.4,8.3
		c3.1,0,6-1.6,6.6-4.9H95c-0.3,4.4-4.8,6.6-8.7,6.6c-6.5,0-10-3.8-10-10.9c0-5.6,3.2-10,9.6-10c6.7,0,9.6,4.7,9.3,10.9H78.8
		L78.8,83.9z"/>
	<polygon class="st0" points="96.4,91.8 99.7,91.8 99.7,66.1 96.4,66.1 96.4,64.4 101.9,64.4 101.9,91.8 105,91.8 105,93.5 
		96.4,93.5 96.4,91.8 	"/>
</g>
</svg>
