<svg xmlns="http://www.w3.org/2000/svg" width="63.21mm" height="51.37mm" viewBox="0 0 179.18 145.61"><defs><style>.a{fill:#fff}</style></defs><title>logo-twitter</title><path class="a" d="M179.18 17.23A73.5 73.5 0 0 1 158.07 23a36.88 36.88 0 0 0 16.16-20.31 73.5 73.5 0 0 1-23.34 8.92 36.79 36.79 0 0 0-62.64 33.52 104.36 104.36 0 0 1-75.77-38.4A36.8 36.8 0 0 0 23.86 55.8a36.56 36.56 0 0 1-16.65-4.6v.46a36.78 36.78 0 0 0 29.49 36 37 37 0 0 1-16.6.63 36.8 36.8 0 0 0 34.34 25.53 73.79 73.79 0 0 1-45.67 15.79 75.21 75.21 0 0 1-8.77-.52 104.08 104.08 0 0 0 56.35 16.51c67.61 0 104.58-56 104.58-104.59q0-2.39-.1-4.75a74.85 74.85 0 0 0 18.34-19"/></svg>